<mxfile host="app.diagrams.net" modified="2024-03-17T21:58:00.554Z" agent="Mozilla/5.0 (Windows NT 10.0; Win64; x64) AppleWebKit/537.36 (KHTML, like Gecko) Chrome/122.0.0.0 Safari/537.36" etag="UPWMa8WeCCstxGaIYqNX" version="24.0.7" type="github">
  <diagram id="R2lEEEUBdFMjLlhIrx00" name="Page-1">
    <mxGraphModel dx="897" dy="997" grid="1" gridSize="10" guides="1" tooltips="1" connect="1" arrows="1" fold="1" page="1" pageScale="1" pageWidth="850" pageHeight="1100" math="0" shadow="0" extFonts="Permanent Marker^https://fonts.googleapis.com/css?family=Permanent+Marker">
      <root>
        <mxCell id="0" />
        <mxCell id="1" parent="0" />
        <mxCell id="NAbaKmCp2qKY5bfBWia4-3" value="&lt;font style=&quot;vertical-align: inherit;&quot;&gt;&lt;font style=&quot;vertical-align: inherit;&quot;&gt;&lt;font style=&quot;vertical-align: inherit;&quot;&gt;&lt;font style=&quot;vertical-align: inherit;&quot;&gt;&lt;font style=&quot;vertical-align: inherit;&quot;&gt;&lt;font style=&quot;vertical-align: inherit;&quot;&gt;1-a)Representa em um DER a associação entre alunos e carteiras, em um instante específico de&lt;/font&gt;&lt;/font&gt;&lt;/font&gt;&lt;/font&gt;&lt;/font&gt;&lt;/font&gt;&lt;div&gt;&lt;font style=&quot;vertical-align: inherit;&quot;&gt;&lt;font style=&quot;vertical-align: inherit;&quot;&gt;&lt;font style=&quot;vertical-align: inherit;&quot;&gt;&lt;font style=&quot;vertical-align: inherit;&quot;&gt;&lt;font style=&quot;vertical-align: inherit;&quot;&gt;&lt;font style=&quot;vertical-align: inherit;&quot;&gt;&amp;nbsp;uma aula em uma sala “X”&lt;/font&gt;&lt;/font&gt;&lt;/font&gt;&lt;/font&gt;&lt;/font&gt;&lt;/font&gt;&lt;div&gt;&lt;span style=&quot;background-color: initial;&quot;&gt;&lt;font style=&quot;vertical-align: inherit;&quot;&gt;&lt;font style=&quot;vertical-align: inherit;&quot;&gt;&amp;nbsp;(como se estivesse modelando uma fotografia).&amp;nbsp;&lt;/font&gt;&lt;/font&gt;&lt;/span&gt;&lt;div&gt;&lt;div&gt;&lt;font style=&quot;vertical-align: inherit;&quot;&gt;&lt;font style=&quot;vertical-align: inherit;&quot;&gt;&lt;font style=&quot;vertical-align: inherit;&quot;&gt;&lt;font style=&quot;vertical-align: inherit;&quot;&gt;Admita que cada aluno só se senta em uma carteira, que nenhum aluno pode ficar de pé&lt;/font&gt;&lt;/font&gt;&lt;/font&gt;&lt;/font&gt;&lt;div&gt;&lt;font style=&quot;vertical-align: inherit;&quot;&gt;&lt;font style=&quot;vertical-align: inherit;&quot;&gt;, que existem mais carteiras que alunos e que não existem 2 ou &lt;br&gt;mais alunos em uma mesma carteira.&lt;/font&gt;&lt;/font&gt;&lt;/div&gt;&lt;/div&gt;&lt;/div&gt;&lt;/div&gt;&lt;/div&gt;" style="text;html=1;align=center;verticalAlign=middle;resizable=0;points=[];autosize=1;strokeColor=none;fillColor=none;fontSize=16;" vertex="1" parent="1">
          <mxGeometry x="95" y="20" width="710" height="130" as="geometry" />
        </mxCell>
        <mxCell id="NAbaKmCp2qKY5bfBWia4-27" value="" style="group" vertex="1" connectable="0" parent="1">
          <mxGeometry x="150" y="190" width="530" height="350" as="geometry" />
        </mxCell>
        <mxCell id="NAbaKmCp2qKY5bfBWia4-5" value="" style="edgeStyle=elbowEdgeStyle;curved=1;rounded=0;orthogonalLoop=1;jettySize=auto;html=1;elbow=horizontal;startArrow=none;endArrow=none;fontSize=12;startSize=8;endSize=8;" edge="1" parent="NAbaKmCp2qKY5bfBWia4-27" source="NAbaKmCp2qKY5bfBWia4-1" target="NAbaKmCp2qKY5bfBWia4-4">
          <mxGeometry relative="1" as="geometry" />
        </mxCell>
        <mxCell id="NAbaKmCp2qKY5bfBWia4-1" value="&lt;font style=&quot;vertical-align: inherit;&quot;&gt;&lt;font style=&quot;vertical-align: inherit;&quot;&gt;aluno&lt;/font&gt;&lt;/font&gt;" style="whiteSpace=wrap;html=1;align=center;verticalAlign=middle;treeFolding=1;treeMoving=1;newEdgeStyle={&quot;edgeStyle&quot;:&quot;elbowEdgeStyle&quot;,&quot;startArrow&quot;:&quot;none&quot;,&quot;endArrow&quot;:&quot;none&quot;};" vertex="1" parent="NAbaKmCp2qKY5bfBWia4-27">
          <mxGeometry y="90" width="100" height="60" as="geometry" />
        </mxCell>
        <mxCell id="NAbaKmCp2qKY5bfBWia4-2" value="" style="edgeStyle=elbowEdgeStyle;elbow=vertical;sourcePerimeterSpacing=0;targetPerimeterSpacing=0;startArrow=oval;endArrow=none;rounded=0;curved=0;fontSize=12;startSize=8;endSize=8;endFill=0;startFill=1;" edge="1" target="NAbaKmCp2qKY5bfBWia4-1" parent="NAbaKmCp2qKY5bfBWia4-27">
          <mxGeometry relative="1" as="geometry">
            <mxPoint x="70" y="20" as="sourcePoint" />
            <Array as="points">
              <mxPoint x="40" y="20" />
            </Array>
          </mxGeometry>
        </mxCell>
        <mxCell id="NAbaKmCp2qKY5bfBWia4-7" value="" style="edgeStyle=none;curved=1;rounded=0;orthogonalLoop=1;jettySize=auto;html=1;fontSize=12;startSize=8;endSize=8;startArrow=none;startFill=0;endArrow=none;endFill=0;" edge="1" parent="NAbaKmCp2qKY5bfBWia4-27" source="NAbaKmCp2qKY5bfBWia4-4" target="NAbaKmCp2qKY5bfBWia4-6">
          <mxGeometry relative="1" as="geometry" />
        </mxCell>
        <mxCell id="NAbaKmCp2qKY5bfBWia4-25" value="" style="edgeStyle=none;curved=1;rounded=0;orthogonalLoop=1;jettySize=auto;html=1;fontSize=12;startSize=8;endSize=8;endArrow=none;endFill=0;" edge="1" parent="NAbaKmCp2qKY5bfBWia4-27" source="NAbaKmCp2qKY5bfBWia4-4" target="NAbaKmCp2qKY5bfBWia4-24">
          <mxGeometry relative="1" as="geometry" />
        </mxCell>
        <mxCell id="NAbaKmCp2qKY5bfBWia4-4" value="&lt;font style=&quot;vertical-align: inherit;&quot;&gt;&lt;font style=&quot;vertical-align: inherit;&quot;&gt;&lt;font style=&quot;vertical-align: inherit;&quot;&gt;&lt;font style=&quot;vertical-align: inherit;&quot;&gt;ocupar&lt;/font&gt;&lt;/font&gt;&lt;/font&gt;&lt;/font&gt;" style="rhombus;whiteSpace=wrap;html=1;" vertex="1" parent="NAbaKmCp2qKY5bfBWia4-27">
          <mxGeometry x="230" y="80" width="80" height="80" as="geometry" />
        </mxCell>
        <mxCell id="NAbaKmCp2qKY5bfBWia4-15" style="edgeStyle=orthogonalEdgeStyle;rounded=0;orthogonalLoop=1;jettySize=auto;html=1;exitX=0.25;exitY=0;exitDx=0;exitDy=0;fontSize=12;startSize=8;endSize=8;endArrow=oval;endFill=1;strokeColor=default;" edge="1" parent="NAbaKmCp2qKY5bfBWia4-27" source="NAbaKmCp2qKY5bfBWia4-6">
          <mxGeometry relative="1" as="geometry">
            <mxPoint x="470" y="30" as="targetPoint" />
            <Array as="points">
              <mxPoint x="440" y="30" />
            </Array>
          </mxGeometry>
        </mxCell>
        <mxCell id="NAbaKmCp2qKY5bfBWia4-17" value="numero" style="edgeLabel;html=1;align=center;verticalAlign=middle;resizable=0;points=[];fontSize=12;" vertex="1" connectable="0" parent="NAbaKmCp2qKY5bfBWia4-15">
          <mxGeometry x="0.7049" y="-4" relative="1" as="geometry">
            <mxPoint x="43" y="-14" as="offset" />
          </mxGeometry>
        </mxCell>
        <mxCell id="NAbaKmCp2qKY5bfBWia4-6" value="&lt;font style=&quot;vertical-align: inherit;&quot;&gt;&lt;font style=&quot;vertical-align: inherit;&quot;&gt;&lt;font style=&quot;vertical-align: inherit;&quot;&gt;&lt;font style=&quot;vertical-align: inherit;&quot;&gt;carteira&lt;/font&gt;&lt;/font&gt;&lt;/font&gt;&lt;/font&gt;" style="whiteSpace=wrap;html=1;" vertex="1" parent="NAbaKmCp2qKY5bfBWia4-27">
          <mxGeometry x="410" y="90" width="120" height="60" as="geometry" />
        </mxCell>
        <mxCell id="NAbaKmCp2qKY5bfBWia4-10" value="&lt;font style=&quot;vertical-align: inherit;&quot;&gt;&lt;font style=&quot;vertical-align: inherit;&quot;&gt;nome&lt;/font&gt;&lt;/font&gt;" style="text;html=1;align=center;verticalAlign=middle;resizable=0;points=[];autosize=1;strokeColor=none;fillColor=none;fontSize=16;" vertex="1" parent="NAbaKmCp2qKY5bfBWia4-27">
          <mxGeometry x="70" width="60" height="30" as="geometry" />
        </mxCell>
        <mxCell id="NAbaKmCp2qKY5bfBWia4-13" value="&lt;font style=&quot;vertical-align: inherit;&quot;&gt;&lt;font style=&quot;vertical-align: inherit;&quot;&gt;1,1&lt;/font&gt;&lt;/font&gt;" style="text;html=1;align=center;verticalAlign=middle;resizable=0;points=[];autosize=1;strokeColor=none;fillColor=none;fontSize=16;" vertex="1" parent="NAbaKmCp2qKY5bfBWia4-27">
          <mxGeometry x="129" y="91" width="50" height="30" as="geometry" />
        </mxCell>
        <mxCell id="NAbaKmCp2qKY5bfBWia4-14" value="&lt;font style=&quot;vertical-align: inherit;&quot;&gt;&lt;font style=&quot;vertical-align: inherit;&quot;&gt;1,1&lt;/font&gt;&lt;/font&gt;" style="text;html=1;align=center;verticalAlign=middle;resizable=0;points=[];autosize=1;strokeColor=none;fillColor=none;fontSize=16;" vertex="1" parent="NAbaKmCp2qKY5bfBWia4-27">
          <mxGeometry x="329" y="91" width="50" height="30" as="geometry" />
        </mxCell>
        <mxCell id="NAbaKmCp2qKY5bfBWia4-22" value="n,n" style="text;html=1;align=center;verticalAlign=middle;resizable=0;points=[];autosize=1;strokeColor=none;fillColor=none;fontSize=16;" vertex="1" parent="NAbaKmCp2qKY5bfBWia4-27">
          <mxGeometry x="329" y="120" width="50" height="30" as="geometry" />
        </mxCell>
        <mxCell id="NAbaKmCp2qKY5bfBWia4-24" value="aluno em pé" style="whiteSpace=wrap;html=1;" vertex="1" parent="NAbaKmCp2qKY5bfBWia4-27">
          <mxGeometry x="210" y="290" width="120" height="60" as="geometry" />
        </mxCell>
        <mxCell id="NAbaKmCp2qKY5bfBWia4-26" value="0,0" style="text;html=1;align=center;verticalAlign=middle;resizable=0;points=[];autosize=1;strokeColor=none;fillColor=none;fontSize=16;" vertex="1" parent="NAbaKmCp2qKY5bfBWia4-27">
          <mxGeometry x="269" y="201" width="50" height="30" as="geometry" />
        </mxCell>
        <mxCell id="NAbaKmCp2qKY5bfBWia4-28" value="1-b)Represente, por intermédio do DER, o relacionamento de casamento civil vigente&lt;div&gt;entre homens e mulheres &lt;br&gt;em uma sociedade monogâmica e que não admite casamento entre pessoas do mesmo sexo.&lt;br&gt;&lt;/div&gt;" style="text;html=1;align=center;verticalAlign=middle;resizable=0;points=[];autosize=1;strokeColor=none;fillColor=none;fontSize=16;" vertex="1" parent="1">
          <mxGeometry x="100" y="580" width="690" height="70" as="geometry" />
        </mxCell>
        <mxCell id="NAbaKmCp2qKY5bfBWia4-53" value="" style="group" vertex="1" connectable="0" parent="1">
          <mxGeometry x="210" y="680" width="480" height="340" as="geometry" />
        </mxCell>
        <mxCell id="NAbaKmCp2qKY5bfBWia4-31" value="" style="edgeStyle=none;curved=1;rounded=0;orthogonalLoop=1;jettySize=auto;html=1;fontSize=12;startSize=8;endSize=8;endArrow=none;endFill=0;" edge="1" parent="NAbaKmCp2qKY5bfBWia4-53" source="NAbaKmCp2qKY5bfBWia4-29" target="NAbaKmCp2qKY5bfBWia4-30">
          <mxGeometry relative="1" as="geometry" />
        </mxCell>
        <mxCell id="NAbaKmCp2qKY5bfBWia4-39" value="" style="edgeStyle=none;curved=1;rounded=0;orthogonalLoop=1;jettySize=auto;html=1;fontSize=12;startSize=8;endSize=8;" edge="1" parent="NAbaKmCp2qKY5bfBWia4-53" source="NAbaKmCp2qKY5bfBWia4-29" target="NAbaKmCp2qKY5bfBWia4-38">
          <mxGeometry relative="1" as="geometry" />
        </mxCell>
        <mxCell id="NAbaKmCp2qKY5bfBWia4-29" value="Homem" style="rounded=0;whiteSpace=wrap;html=1;" vertex="1" parent="NAbaKmCp2qKY5bfBWia4-53">
          <mxGeometry y="7.555555555555555" width="102.85714285714285" height="45.33333333333333" as="geometry" />
        </mxCell>
        <mxCell id="NAbaKmCp2qKY5bfBWia4-34" value="" style="edgeStyle=none;curved=1;rounded=0;orthogonalLoop=1;jettySize=auto;html=1;fontSize=12;startSize=8;endSize=8;endArrow=none;endFill=0;" edge="1" parent="NAbaKmCp2qKY5bfBWia4-53" source="NAbaKmCp2qKY5bfBWia4-30" target="NAbaKmCp2qKY5bfBWia4-33">
          <mxGeometry relative="1" as="geometry" />
        </mxCell>
        <mxCell id="NAbaKmCp2qKY5bfBWia4-30" value="casamento" style="rhombus;whiteSpace=wrap;html=1;rounded=0;" vertex="1" parent="NAbaKmCp2qKY5bfBWia4-53">
          <mxGeometry x="222.85714285714283" width="68.57142857142857" height="60.44444444444444" as="geometry" />
        </mxCell>
        <mxCell id="NAbaKmCp2qKY5bfBWia4-45" value="" style="edgeStyle=none;curved=1;rounded=0;orthogonalLoop=1;jettySize=auto;html=1;fontSize=12;startSize=8;endSize=8;" edge="1" parent="NAbaKmCp2qKY5bfBWia4-53" source="NAbaKmCp2qKY5bfBWia4-33" target="NAbaKmCp2qKY5bfBWia4-44">
          <mxGeometry relative="1" as="geometry" />
        </mxCell>
        <mxCell id="NAbaKmCp2qKY5bfBWia4-33" value="Mulher" style="whiteSpace=wrap;html=1;rounded=0;" vertex="1" parent="NAbaKmCp2qKY5bfBWia4-53">
          <mxGeometry x="377.1428571428571" y="7.555555555555555" width="102.85714285714285" height="45.33333333333333" as="geometry" />
        </mxCell>
        <mxCell id="NAbaKmCp2qKY5bfBWia4-35" value="1,1" style="text;html=1;align=center;verticalAlign=middle;resizable=0;points=[];autosize=1;strokeColor=none;fillColor=none;fontSize=16;" vertex="1" parent="NAbaKmCp2qKY5bfBWia4-53">
          <mxGeometry x="144.85714285714286" y="8.31111111111111" width="50" height="30" as="geometry" />
        </mxCell>
        <mxCell id="NAbaKmCp2qKY5bfBWia4-36" value="1,1" style="text;html=1;align=center;verticalAlign=middle;resizable=0;points=[];autosize=1;strokeColor=none;fillColor=none;fontSize=16;" vertex="1" parent="NAbaKmCp2qKY5bfBWia4-53">
          <mxGeometry x="308.57142857142856" y="7.555555555555555" width="50" height="30" as="geometry" />
        </mxCell>
        <mxCell id="NAbaKmCp2qKY5bfBWia4-41" value="" style="edgeStyle=none;curved=1;rounded=0;orthogonalLoop=1;jettySize=auto;html=1;fontSize=12;startSize=8;endSize=8;" edge="1" parent="NAbaKmCp2qKY5bfBWia4-53" source="NAbaKmCp2qKY5bfBWia4-38" target="NAbaKmCp2qKY5bfBWia4-40">
          <mxGeometry relative="1" as="geometry" />
        </mxCell>
        <mxCell id="NAbaKmCp2qKY5bfBWia4-38" value="casamento" style="rhombus;whiteSpace=wrap;html=1;rounded=0;" vertex="1" parent="NAbaKmCp2qKY5bfBWia4-53">
          <mxGeometry x="17.142857142857142" y="136" width="68.57142857142857" height="60.44444444444444" as="geometry" />
        </mxCell>
        <mxCell id="NAbaKmCp2qKY5bfBWia4-40" value="Homem" style="whiteSpace=wrap;html=1;rounded=0;" vertex="1" parent="NAbaKmCp2qKY5bfBWia4-53">
          <mxGeometry y="294.6666666666667" width="102.85714285714285" height="45.33333333333333" as="geometry" />
        </mxCell>
        <mxCell id="NAbaKmCp2qKY5bfBWia4-42" value="0,0" style="text;html=1;align=center;verticalAlign=middle;resizable=0;points=[];autosize=1;strokeColor=none;fillColor=none;fontSize=16;" vertex="1" parent="NAbaKmCp2qKY5bfBWia4-53">
          <mxGeometry x="42" y="76.3111111111111" width="50" height="30" as="geometry" />
        </mxCell>
        <mxCell id="NAbaKmCp2qKY5bfBWia4-43" value="0,0" style="text;html=1;align=center;verticalAlign=middle;resizable=0;points=[];autosize=1;strokeColor=none;fillColor=none;fontSize=16;" vertex="1" parent="NAbaKmCp2qKY5bfBWia4-53">
          <mxGeometry x="42" y="219.86666666666667" width="50" height="30" as="geometry" />
        </mxCell>
        <mxCell id="NAbaKmCp2qKY5bfBWia4-47" value="" style="edgeStyle=none;curved=1;rounded=0;orthogonalLoop=1;jettySize=auto;html=1;fontSize=12;startSize=8;endSize=8;" edge="1" parent="NAbaKmCp2qKY5bfBWia4-53" source="NAbaKmCp2qKY5bfBWia4-44" target="NAbaKmCp2qKY5bfBWia4-46">
          <mxGeometry relative="1" as="geometry" />
        </mxCell>
        <mxCell id="NAbaKmCp2qKY5bfBWia4-44" value="casamento" style="rhombus;whiteSpace=wrap;html=1;rounded=0;" vertex="1" parent="NAbaKmCp2qKY5bfBWia4-53">
          <mxGeometry x="394.2857142857143" y="136" width="68.57142857142857" height="60.44444444444444" as="geometry" />
        </mxCell>
        <mxCell id="NAbaKmCp2qKY5bfBWia4-46" value="Mulher" style="rounded=0;whiteSpace=wrap;html=1;" vertex="1" parent="NAbaKmCp2qKY5bfBWia4-53">
          <mxGeometry x="377.1428571428571" y="294.6666666666667" width="102.85714285714285" height="45.33333333333333" as="geometry" />
        </mxCell>
        <mxCell id="NAbaKmCp2qKY5bfBWia4-48" value="&lt;span style=&quot;color: rgb(0, 0, 0); font-family: Helvetica; font-size: 16px; font-style: normal; font-variant-ligatures: normal; font-variant-caps: normal; font-weight: 400; letter-spacing: normal; orphans: 2; text-align: center; text-indent: 0px; text-transform: none; widows: 2; word-spacing: 0px; -webkit-text-stroke-width: 0px; white-space: nowrap; background-color: rgb(251, 251, 251); text-decoration-thickness: initial; text-decoration-style: initial; text-decoration-color: initial; display: inline !important; float: none;&quot;&gt;0,0&lt;/span&gt;" style="text;whiteSpace=wrap;html=1;" vertex="1" parent="NAbaKmCp2qKY5bfBWia4-53">
          <mxGeometry x="394.2857142857143" y="76.3111111111111" width="51.42857142857142" height="30.22222222222222" as="geometry" />
        </mxCell>
        <mxCell id="NAbaKmCp2qKY5bfBWia4-49" value="&lt;span style=&quot;color: rgb(0, 0, 0); font-family: Helvetica; font-size: 16px; font-style: normal; font-variant-ligatures: normal; font-variant-caps: normal; font-weight: 400; letter-spacing: normal; orphans: 2; text-align: center; text-indent: 0px; text-transform: none; widows: 2; word-spacing: 0px; -webkit-text-stroke-width: 0px; white-space: nowrap; background-color: rgb(251, 251, 251); text-decoration-thickness: initial; text-decoration-style: initial; text-decoration-color: initial; display: inline !important; float: none;&quot;&gt;0,0&lt;/span&gt;" style="text;whiteSpace=wrap;html=1;" vertex="1" parent="NAbaKmCp2qKY5bfBWia4-53">
          <mxGeometry x="394.2857142857143" y="219.86666666666667" width="51.42857142857142" height="30.22222222222222" as="geometry" />
        </mxCell>
        <mxCell id="NAbaKmCp2qKY5bfBWia4-54" value="1-c)Represente um atributo que caracterize quando (data) esse casamento civil foi realizado.&lt;div&gt;&lt;br&gt;&lt;/div&gt;" style="text;html=1;align=center;verticalAlign=middle;resizable=0;points=[];autosize=1;strokeColor=none;fillColor=none;fontSize=16;" vertex="1" parent="1">
          <mxGeometry x="100" y="1120" width="680" height="50" as="geometry" />
        </mxCell>
        <mxCell id="NAbaKmCp2qKY5bfBWia4-55" value="" style="edgeStyle=none;curved=1;rounded=0;orthogonalLoop=1;jettySize=auto;html=1;fontSize=12;startSize=8;endSize=8;endArrow=none;endFill=0;" edge="1" parent="1" source="NAbaKmCp2qKY5bfBWia4-56" target="NAbaKmCp2qKY5bfBWia4-58">
          <mxGeometry relative="1" as="geometry" />
        </mxCell>
        <mxCell id="NAbaKmCp2qKY5bfBWia4-56" value="Homem" style="rounded=0;whiteSpace=wrap;html=1;" vertex="1" parent="1">
          <mxGeometry x="210" y="687.5555555555555" width="102.85714285714285" height="45.33333333333333" as="geometry" />
        </mxCell>
        <mxCell id="NAbaKmCp2qKY5bfBWia4-57" value="" style="edgeStyle=none;curved=1;rounded=0;orthogonalLoop=1;jettySize=auto;html=1;fontSize=12;startSize=8;endSize=8;endArrow=none;endFill=0;" edge="1" parent="1" source="NAbaKmCp2qKY5bfBWia4-58" target="NAbaKmCp2qKY5bfBWia4-59">
          <mxGeometry relative="1" as="geometry" />
        </mxCell>
        <mxCell id="NAbaKmCp2qKY5bfBWia4-58" value="casamento" style="rhombus;whiteSpace=wrap;html=1;rounded=0;" vertex="1" parent="1">
          <mxGeometry x="432.85714285714283" y="680" width="68.57142857142857" height="60.44444444444444" as="geometry" />
        </mxCell>
        <mxCell id="NAbaKmCp2qKY5bfBWia4-59" value="Mulher" style="whiteSpace=wrap;html=1;rounded=0;" vertex="1" parent="1">
          <mxGeometry x="587.1428571428571" y="687.5555555555555" width="102.85714285714285" height="45.33333333333333" as="geometry" />
        </mxCell>
        <mxCell id="NAbaKmCp2qKY5bfBWia4-60" value="1,1" style="text;html=1;align=center;verticalAlign=middle;resizable=0;points=[];autosize=1;strokeColor=none;fillColor=none;fontSize=16;" vertex="1" parent="1">
          <mxGeometry x="354.8571428571429" y="688.3111111111111" width="50" height="30" as="geometry" />
        </mxCell>
        <mxCell id="NAbaKmCp2qKY5bfBWia4-61" value="1,1" style="text;html=1;align=center;verticalAlign=middle;resizable=0;points=[];autosize=1;strokeColor=none;fillColor=none;fontSize=16;" vertex="1" parent="1">
          <mxGeometry x="518.5714285714286" y="687.5555555555555" width="50" height="30" as="geometry" />
        </mxCell>
        <mxCell id="NAbaKmCp2qKY5bfBWia4-62" value="" style="edgeStyle=none;curved=1;rounded=0;orthogonalLoop=1;jettySize=auto;html=1;fontSize=12;startSize=8;endSize=8;endArrow=none;endFill=0;" edge="1" parent="1" source="NAbaKmCp2qKY5bfBWia4-63" target="NAbaKmCp2qKY5bfBWia4-65">
          <mxGeometry relative="1" as="geometry" />
        </mxCell>
        <mxCell id="NAbaKmCp2qKY5bfBWia4-63" value="Homem" style="rounded=0;whiteSpace=wrap;html=1;" vertex="1" parent="1">
          <mxGeometry x="190" y="1257.5555555555557" width="102.85714285714285" height="45.33333333333333" as="geometry" />
        </mxCell>
        <mxCell id="NAbaKmCp2qKY5bfBWia4-64" value="" style="edgeStyle=none;curved=1;rounded=0;orthogonalLoop=1;jettySize=auto;html=1;fontSize=12;startSize=8;endSize=8;endArrow=none;endFill=0;" edge="1" parent="1" source="NAbaKmCp2qKY5bfBWia4-65" target="NAbaKmCp2qKY5bfBWia4-66">
          <mxGeometry relative="1" as="geometry" />
        </mxCell>
        <mxCell id="NAbaKmCp2qKY5bfBWia4-69" style="edgeStyle=orthogonalEdgeStyle;rounded=0;orthogonalLoop=1;jettySize=auto;html=1;exitX=1;exitY=0;exitDx=0;exitDy=0;fontSize=12;startSize=8;endSize=8;endArrow=oval;endFill=1;" edge="1" parent="1" source="NAbaKmCp2qKY5bfBWia4-65">
          <mxGeometry relative="1" as="geometry">
            <mxPoint x="500" y="1230" as="targetPoint" />
            <Array as="points">
              <mxPoint x="464" y="1230" />
            </Array>
          </mxGeometry>
        </mxCell>
        <mxCell id="NAbaKmCp2qKY5bfBWia4-65" value="casamento" style="rhombus;whiteSpace=wrap;html=1;rounded=0;" vertex="1" parent="1">
          <mxGeometry x="412.85714285714283" y="1250" width="68.57142857142857" height="60.44444444444444" as="geometry" />
        </mxCell>
        <mxCell id="NAbaKmCp2qKY5bfBWia4-66" value="Mulher" style="whiteSpace=wrap;html=1;rounded=0;" vertex="1" parent="1">
          <mxGeometry x="567.1428571428571" y="1257.5555555555557" width="102.85714285714285" height="45.33333333333333" as="geometry" />
        </mxCell>
        <mxCell id="NAbaKmCp2qKY5bfBWia4-67" value="1,1" style="text;html=1;align=center;verticalAlign=middle;resizable=0;points=[];autosize=1;strokeColor=none;fillColor=none;fontSize=16;" vertex="1" parent="1">
          <mxGeometry x="334.8571428571429" y="1258.3111111111111" width="50" height="30" as="geometry" />
        </mxCell>
        <mxCell id="NAbaKmCp2qKY5bfBWia4-68" value="1,1" style="text;html=1;align=center;verticalAlign=middle;resizable=0;points=[];autosize=1;strokeColor=none;fillColor=none;fontSize=16;" vertex="1" parent="1">
          <mxGeometry x="498.57142857142856" y="1257.5555555555557" width="50" height="30" as="geometry" />
        </mxCell>
        <mxCell id="NAbaKmCp2qKY5bfBWia4-70" value="data" style="text;html=1;align=center;verticalAlign=middle;resizable=0;points=[];autosize=1;strokeColor=none;fillColor=none;fontSize=16;" vertex="1" parent="1">
          <mxGeometry x="498.57" y="1211" width="50" height="30" as="geometry" />
        </mxCell>
        <mxCell id="NAbaKmCp2qKY5bfBWia4-71" value="2-a)Contexto: represente o mesmo relacionamento de casamento do exercício anterior, supondo agora um novo &lt;br&gt;contexto que admite casamento de um homem com mais de uma mulher, contudo uma mulher permanece &lt;br&gt;podendo casar com apenas um homem." style="text;whiteSpace=wrap;html=1;" vertex="1" parent="1">
          <mxGeometry x="120" y="1380" width="560" height="100" as="geometry" />
        </mxCell>
        <mxCell id="NAbaKmCp2qKY5bfBWia4-72" value="" style="edgeStyle=none;curved=1;rounded=0;orthogonalLoop=1;jettySize=auto;html=1;fontSize=12;startSize=8;endSize=8;endArrow=none;endFill=0;" edge="1" parent="1" source="NAbaKmCp2qKY5bfBWia4-73" target="NAbaKmCp2qKY5bfBWia4-76">
          <mxGeometry relative="1" as="geometry" />
        </mxCell>
        <mxCell id="NAbaKmCp2qKY5bfBWia4-73" value="Homem" style="rounded=0;whiteSpace=wrap;html=1;" vertex="1" parent="1">
          <mxGeometry x="160" y="1526.5555555555557" width="102.85714285714285" height="45.33333333333333" as="geometry" />
        </mxCell>
        <mxCell id="NAbaKmCp2qKY5bfBWia4-74" value="" style="edgeStyle=none;curved=1;rounded=0;orthogonalLoop=1;jettySize=auto;html=1;fontSize=12;startSize=8;endSize=8;endArrow=none;endFill=0;" edge="1" parent="1" source="NAbaKmCp2qKY5bfBWia4-76" target="NAbaKmCp2qKY5bfBWia4-77">
          <mxGeometry relative="1" as="geometry" />
        </mxCell>
        <mxCell id="NAbaKmCp2qKY5bfBWia4-76" value="casamento" style="rhombus;whiteSpace=wrap;html=1;rounded=0;" vertex="1" parent="1">
          <mxGeometry x="382.85714285714283" y="1519" width="68.57142857142857" height="60.44444444444444" as="geometry" />
        </mxCell>
        <mxCell id="NAbaKmCp2qKY5bfBWia4-77" value="Mulher" style="whiteSpace=wrap;html=1;rounded=0;" vertex="1" parent="1">
          <mxGeometry x="537.1428571428571" y="1526.5555555555557" width="102.85714285714285" height="45.33333333333333" as="geometry" />
        </mxCell>
        <mxCell id="NAbaKmCp2qKY5bfBWia4-78" value="1,n" style="text;html=1;align=center;verticalAlign=middle;resizable=0;points=[];autosize=1;strokeColor=none;fillColor=none;fontSize=16;" vertex="1" parent="1">
          <mxGeometry x="304.8571428571429" y="1527.3111111111111" width="50" height="30" as="geometry" />
        </mxCell>
        <mxCell id="NAbaKmCp2qKY5bfBWia4-79" value="1,1" style="text;html=1;align=center;verticalAlign=middle;resizable=0;points=[];autosize=1;strokeColor=none;fillColor=none;fontSize=16;" vertex="1" parent="1">
          <mxGeometry x="468.57142857142856" y="1526.5555555555557" width="50" height="30" as="geometry" />
        </mxCell>
        <mxCell id="NAbaKmCp2qKY5bfBWia4-81" value="3-a)Em um hospital, um paciente ocupa, obrigatoriamente, um leito" style="text;html=1;align=center;verticalAlign=middle;resizable=0;points=[];autosize=1;strokeColor=none;fillColor=none;fontSize=16;" vertex="1" parent="1">
          <mxGeometry x="120" y="1630" width="500" height="30" as="geometry" />
        </mxCell>
        <mxCell id="NAbaKmCp2qKY5bfBWia4-82" value="" style="edgeStyle=none;curved=1;rounded=0;orthogonalLoop=1;jettySize=auto;html=1;fontSize=12;startSize=8;endSize=8;endArrow=none;endFill=0;" edge="1" parent="1" source="NAbaKmCp2qKY5bfBWia4-83" target="NAbaKmCp2qKY5bfBWia4-85">
          <mxGeometry relative="1" as="geometry" />
        </mxCell>
        <mxCell id="NAbaKmCp2qKY5bfBWia4-83" value="paciente" style="rounded=0;whiteSpace=wrap;html=1;" vertex="1" parent="1">
          <mxGeometry x="139.86" y="1787.5555555555557" width="102.85714285714285" height="45.33333333333333" as="geometry" />
        </mxCell>
        <mxCell id="NAbaKmCp2qKY5bfBWia4-84" value="" style="edgeStyle=none;curved=1;rounded=0;orthogonalLoop=1;jettySize=auto;html=1;fontSize=12;startSize=8;endSize=8;endArrow=none;endFill=0;" edge="1" parent="1" source="NAbaKmCp2qKY5bfBWia4-85" target="NAbaKmCp2qKY5bfBWia4-86">
          <mxGeometry relative="1" as="geometry" />
        </mxCell>
        <mxCell id="NAbaKmCp2qKY5bfBWia4-85" value="ocupa" style="rhombus;whiteSpace=wrap;html=1;rounded=0;" vertex="1" parent="1">
          <mxGeometry x="362.71714285714285" y="1780" width="68.57142857142857" height="60.44444444444444" as="geometry" />
        </mxCell>
        <mxCell id="NAbaKmCp2qKY5bfBWia4-86" value="leito" style="whiteSpace=wrap;html=1;rounded=0;" vertex="1" parent="1">
          <mxGeometry x="517.0028571428571" y="1787.5555555555557" width="102.85714285714285" height="45.33333333333333" as="geometry" />
        </mxCell>
        <mxCell id="NAbaKmCp2qKY5bfBWia4-87" value="1,1" style="text;html=1;align=center;verticalAlign=middle;resizable=0;points=[];autosize=1;strokeColor=none;fillColor=none;fontSize=16;" vertex="1" parent="1">
          <mxGeometry x="284.7171428571429" y="1788.3111111111111" width="50" height="30" as="geometry" />
        </mxCell>
        <mxCell id="NAbaKmCp2qKY5bfBWia4-88" value="1,1" style="text;html=1;align=center;verticalAlign=middle;resizable=0;points=[];autosize=1;strokeColor=none;fillColor=none;fontSize=16;" vertex="1" parent="1">
          <mxGeometry x="448.43142857142857" y="1787.5555555555557" width="50" height="30" as="geometry" />
        </mxCell>
        <mxCell id="NAbaKmCp2qKY5bfBWia4-89" value="3-b)Um funcionário está sempre alocado a um único setor que pode, por sua vez,&lt;div&gt;&amp;nbsp;possuir vários funcionários &lt;br&gt;alocados nele.&lt;/div&gt;" style="text;html=1;align=center;verticalAlign=middle;resizable=0;points=[];autosize=1;strokeColor=none;fillColor=none;fontSize=16;" vertex="1" parent="1">
          <mxGeometry x="120" y="1880" width="600" height="70" as="geometry" />
        </mxCell>
        <mxCell id="NAbaKmCp2qKY5bfBWia4-90" value="" style="edgeStyle=none;curved=1;rounded=0;orthogonalLoop=1;jettySize=auto;html=1;fontSize=12;startSize=8;endSize=8;endArrow=none;endFill=0;" edge="1" parent="1" source="NAbaKmCp2qKY5bfBWia4-91" target="NAbaKmCp2qKY5bfBWia4-93">
          <mxGeometry relative="1" as="geometry" />
        </mxCell>
        <mxCell id="NAbaKmCp2qKY5bfBWia4-91" value="funcionario" style="rounded=0;whiteSpace=wrap;html=1;" vertex="1" parent="1">
          <mxGeometry x="139.86" y="2007.5555555555557" width="102.85714285714285" height="45.33333333333333" as="geometry" />
        </mxCell>
        <mxCell id="NAbaKmCp2qKY5bfBWia4-92" value="" style="edgeStyle=none;curved=1;rounded=0;orthogonalLoop=1;jettySize=auto;html=1;fontSize=12;startSize=8;endSize=8;endArrow=none;endFill=0;" edge="1" parent="1" source="NAbaKmCp2qKY5bfBWia4-93" target="NAbaKmCp2qKY5bfBWia4-94">
          <mxGeometry relative="1" as="geometry" />
        </mxCell>
        <mxCell id="NAbaKmCp2qKY5bfBWia4-93" value="alocado" style="rhombus;whiteSpace=wrap;html=1;rounded=0;" vertex="1" parent="1">
          <mxGeometry x="362.71714285714285" y="2000" width="68.57142857142857" height="60.44444444444444" as="geometry" />
        </mxCell>
        <mxCell id="NAbaKmCp2qKY5bfBWia4-94" value="setor" style="whiteSpace=wrap;html=1;rounded=0;" vertex="1" parent="1">
          <mxGeometry x="517.0028571428571" y="2007.5555555555557" width="102.85714285714285" height="45.33333333333333" as="geometry" />
        </mxCell>
        <mxCell id="NAbaKmCp2qKY5bfBWia4-95" value="1,n" style="text;html=1;align=center;verticalAlign=middle;resizable=0;points=[];autosize=1;strokeColor=none;fillColor=none;fontSize=16;" vertex="1" parent="1">
          <mxGeometry x="284.7171428571429" y="2008.3111111111111" width="50" height="30" as="geometry" />
        </mxCell>
        <mxCell id="NAbaKmCp2qKY5bfBWia4-96" value="1,1" style="text;html=1;align=center;verticalAlign=middle;resizable=0;points=[];autosize=1;strokeColor=none;fillColor=none;fontSize=16;" vertex="1" parent="1">
          <mxGeometry x="448.43142857142857" y="2007.5555555555557" width="50" height="30" as="geometry" />
        </mxCell>
        <mxCell id="NAbaKmCp2qKY5bfBWia4-97" value="3-c) Em um zoológico, um animal ocupa uma única jaula. Uma jaula pode&amp;nbsp;&lt;div&gt;ser coletiva ou estar vazia. Alguns &lt;br&gt;animais vivem soltos no zoológico.&lt;/div&gt;" style="text;html=1;align=center;verticalAlign=middle;resizable=0;points=[];autosize=1;strokeColor=none;fillColor=none;fontSize=16;" vertex="1" parent="1">
          <mxGeometry x="139.86" y="2220" width="550" height="70" as="geometry" />
        </mxCell>
        <mxCell id="NAbaKmCp2qKY5bfBWia4-107" value="" style="group" vertex="1" connectable="0" parent="1">
          <mxGeometry x="130" y="2320" width="560" height="80" as="geometry" />
        </mxCell>
        <mxCell id="NAbaKmCp2qKY5bfBWia4-100" value="" style="edgeStyle=none;curved=1;rounded=0;orthogonalLoop=1;jettySize=auto;html=1;fontSize=12;startSize=8;endSize=8;endArrow=none;endFill=0;" edge="1" parent="NAbaKmCp2qKY5bfBWia4-107" source="NAbaKmCp2qKY5bfBWia4-98" target="NAbaKmCp2qKY5bfBWia4-99">
          <mxGeometry relative="1" as="geometry" />
        </mxCell>
        <mxCell id="NAbaKmCp2qKY5bfBWia4-98" value="animais" style="rounded=0;whiteSpace=wrap;html=1;" vertex="1" parent="NAbaKmCp2qKY5bfBWia4-107">
          <mxGeometry y="10" width="120" height="60" as="geometry" />
        </mxCell>
        <mxCell id="NAbaKmCp2qKY5bfBWia4-102" value="" style="edgeStyle=none;curved=1;rounded=0;orthogonalLoop=1;jettySize=auto;html=1;fontSize=12;startSize=8;endSize=8;endArrow=none;endFill=0;" edge="1" parent="NAbaKmCp2qKY5bfBWia4-107" source="NAbaKmCp2qKY5bfBWia4-99" target="NAbaKmCp2qKY5bfBWia4-101">
          <mxGeometry relative="1" as="geometry" />
        </mxCell>
        <mxCell id="NAbaKmCp2qKY5bfBWia4-99" value="ocupa" style="rhombus;whiteSpace=wrap;html=1;rounded=0;" vertex="1" parent="NAbaKmCp2qKY5bfBWia4-107">
          <mxGeometry x="260" width="80" height="80" as="geometry" />
        </mxCell>
        <mxCell id="NAbaKmCp2qKY5bfBWia4-101" value="jaula" style="whiteSpace=wrap;html=1;rounded=0;" vertex="1" parent="NAbaKmCp2qKY5bfBWia4-107">
          <mxGeometry x="440" y="10" width="120" height="60" as="geometry" />
        </mxCell>
        <mxCell id="NAbaKmCp2qKY5bfBWia4-103" value="1,n" style="text;html=1;align=center;verticalAlign=middle;resizable=0;points=[];autosize=1;strokeColor=none;fillColor=none;fontSize=16;" vertex="1" parent="NAbaKmCp2qKY5bfBWia4-107">
          <mxGeometry x="159" y="11" width="50" height="30" as="geometry" />
        </mxCell>
        <mxCell id="NAbaKmCp2qKY5bfBWia4-104" value="0,1" style="text;html=1;align=center;verticalAlign=middle;resizable=0;points=[];autosize=1;strokeColor=none;fillColor=none;fontSize=16;" vertex="1" parent="NAbaKmCp2qKY5bfBWia4-107">
          <mxGeometry x="359" y="10" width="50" height="30" as="geometry" />
        </mxCell>
        <mxCell id="NAbaKmCp2qKY5bfBWia4-108" value="4-a)Nome do Paciente, Data de Nascimento, Número do leito, Situação do Leito;" style="text;html=1;align=center;verticalAlign=middle;resizable=0;points=[];autosize=1;strokeColor=none;fillColor=none;fontSize=16;" vertex="1" parent="1">
          <mxGeometry x="140" y="2461" width="600" height="30" as="geometry" />
        </mxCell>
        <mxCell id="NAbaKmCp2qKY5bfBWia4-136" value="" style="group" vertex="1" connectable="0" parent="1">
          <mxGeometry x="180" y="2570" width="490" height="130.44444444444434" as="geometry" />
        </mxCell>
        <mxCell id="NAbaKmCp2qKY5bfBWia4-109" value="" style="edgeStyle=none;curved=1;rounded=0;orthogonalLoop=1;jettySize=auto;html=1;fontSize=12;startSize=8;endSize=8;endArrow=none;endFill=0;" edge="1" source="NAbaKmCp2qKY5bfBWia4-110" target="NAbaKmCp2qKY5bfBWia4-112" parent="NAbaKmCp2qKY5bfBWia4-136">
          <mxGeometry relative="1" as="geometry" />
        </mxCell>
        <mxCell id="NAbaKmCp2qKY5bfBWia4-116" style="edgeStyle=orthogonalEdgeStyle;rounded=0;orthogonalLoop=1;jettySize=auto;html=1;exitX=0.25;exitY=0;exitDx=0;exitDy=0;fontSize=12;startSize=8;endSize=8;endArrow=oval;endFill=1;" edge="1" parent="NAbaKmCp2qKY5bfBWia4-136" source="NAbaKmCp2qKY5bfBWia4-110">
          <mxGeometry relative="1" as="geometry">
            <mxPoint x="50" y="20" as="targetPoint" />
            <Array as="points">
              <mxPoint x="26" y="20" />
            </Array>
          </mxGeometry>
        </mxCell>
        <mxCell id="NAbaKmCp2qKY5bfBWia4-110" value="paciente" style="rounded=0;whiteSpace=wrap;html=1;" vertex="1" parent="NAbaKmCp2qKY5bfBWia4-136">
          <mxGeometry y="77.55555555555566" width="102.85714285714285" height="45.33333333333333" as="geometry" />
        </mxCell>
        <mxCell id="NAbaKmCp2qKY5bfBWia4-111" value="" style="edgeStyle=none;curved=1;rounded=0;orthogonalLoop=1;jettySize=auto;html=1;fontSize=12;startSize=8;endSize=8;endArrow=none;endFill=0;" edge="1" source="NAbaKmCp2qKY5bfBWia4-112" target="NAbaKmCp2qKY5bfBWia4-113" parent="NAbaKmCp2qKY5bfBWia4-136">
          <mxGeometry relative="1" as="geometry" />
        </mxCell>
        <mxCell id="NAbaKmCp2qKY5bfBWia4-112" value="ocupa" style="rhombus;whiteSpace=wrap;html=1;rounded=0;" vertex="1" parent="NAbaKmCp2qKY5bfBWia4-136">
          <mxGeometry x="222.85714285714283" y="70" width="68.57142857142857" height="60.44444444444444" as="geometry" />
        </mxCell>
        <mxCell id="NAbaKmCp2qKY5bfBWia4-127" style="edgeStyle=orthogonalEdgeStyle;rounded=0;orthogonalLoop=1;jettySize=auto;html=1;exitX=0.25;exitY=0;exitDx=0;exitDy=0;fontSize=12;startSize=8;endSize=8;endArrow=oval;endFill=1;" edge="1" parent="NAbaKmCp2qKY5bfBWia4-136" source="NAbaKmCp2qKY5bfBWia4-113">
          <mxGeometry relative="1" as="geometry">
            <mxPoint x="420" y="30" as="targetPoint" />
            <Array as="points">
              <mxPoint x="403" y="30" />
            </Array>
          </mxGeometry>
        </mxCell>
        <mxCell id="NAbaKmCp2qKY5bfBWia4-113" value="leito" style="whiteSpace=wrap;html=1;rounded=0;" vertex="1" parent="NAbaKmCp2qKY5bfBWia4-136">
          <mxGeometry x="377.1428571428571" y="77.55555555555566" width="102.85714285714285" height="45.33333333333333" as="geometry" />
        </mxCell>
        <mxCell id="NAbaKmCp2qKY5bfBWia4-114" value="1,1" style="text;html=1;align=center;verticalAlign=middle;resizable=0;points=[];autosize=1;strokeColor=none;fillColor=none;fontSize=16;" vertex="1" parent="NAbaKmCp2qKY5bfBWia4-136">
          <mxGeometry x="144.8571428571429" y="78.31111111111113" width="50" height="30" as="geometry" />
        </mxCell>
        <mxCell id="NAbaKmCp2qKY5bfBWia4-115" value="1,1" style="text;html=1;align=center;verticalAlign=middle;resizable=0;points=[];autosize=1;strokeColor=none;fillColor=none;fontSize=16;" vertex="1" parent="NAbaKmCp2qKY5bfBWia4-136">
          <mxGeometry x="308.57142857142856" y="77.55555555555566" width="50" height="30" as="geometry" />
        </mxCell>
        <mxCell id="NAbaKmCp2qKY5bfBWia4-117" value="nome" style="text;html=1;align=center;verticalAlign=middle;resizable=0;points=[];autosize=1;strokeColor=none;fillColor=none;fontSize=16;" vertex="1" parent="NAbaKmCp2qKY5bfBWia4-136">
          <mxGeometry x="51.43000000000001" width="60" height="30" as="geometry" />
        </mxCell>
        <mxCell id="NAbaKmCp2qKY5bfBWia4-120" style="edgeStyle=orthogonalEdgeStyle;rounded=0;orthogonalLoop=1;jettySize=auto;html=1;fontSize=12;startSize=8;endSize=8;endArrow=oval;endFill=0;exitX=0.5;exitY=0;exitDx=0;exitDy=0;" edge="1" parent="NAbaKmCp2qKY5bfBWia4-136" source="NAbaKmCp2qKY5bfBWia4-110">
          <mxGeometry relative="1" as="geometry">
            <mxPoint x="60" y="30" as="targetPoint" />
            <mxPoint x="50" y="80" as="sourcePoint" />
            <Array as="points">
              <mxPoint x="50" y="78" />
              <mxPoint x="50" y="30" />
            </Array>
          </mxGeometry>
        </mxCell>
        <mxCell id="NAbaKmCp2qKY5bfBWia4-126" value="data nascimento" style="text;html=1;align=center;verticalAlign=middle;resizable=0;points=[];autosize=1;strokeColor=none;fillColor=none;fontSize=16;" vertex="1" parent="NAbaKmCp2qKY5bfBWia4-136">
          <mxGeometry x="54.860000000000014" y="21" width="140" height="30" as="geometry" />
        </mxCell>
        <mxCell id="NAbaKmCp2qKY5bfBWia4-128" value="nr leito" style="text;html=1;align=center;verticalAlign=middle;resizable=0;points=[];autosize=1;strokeColor=none;fillColor=none;fontSize=16;" vertex="1" parent="NAbaKmCp2qKY5bfBWia4-136">
          <mxGeometry x="420" y="10" width="70" height="30" as="geometry" />
        </mxCell>
        <mxCell id="NAbaKmCp2qKY5bfBWia4-131" style="edgeStyle=orthogonalEdgeStyle;rounded=0;orthogonalLoop=1;jettySize=auto;html=1;fontSize=12;startSize=8;endSize=8;endArrow=oval;endFill=0;" edge="1" parent="NAbaKmCp2qKY5bfBWia4-136">
          <mxGeometry relative="1" as="geometry">
            <mxPoint x="440" y="48" as="targetPoint" />
            <mxPoint x="420" y="77.55999999999995" as="sourcePoint" />
            <Array as="points">
              <mxPoint x="420" y="48" />
              <mxPoint x="441" y="48" />
            </Array>
          </mxGeometry>
        </mxCell>
        <mxCell id="NAbaKmCp2qKY5bfBWia4-132" value="situação" style="edgeLabel;html=1;align=center;verticalAlign=middle;resizable=0;points=[];fontSize=12;" vertex="1" connectable="0" parent="NAbaKmCp2qKY5bfBWia4-131">
          <mxGeometry x="0.6328" y="-1" relative="1" as="geometry">
            <mxPoint x="40" y="-1" as="offset" />
          </mxGeometry>
        </mxCell>
        <mxCell id="NAbaKmCp2qKY5bfBWia4-137" value="4-b)Nome do Funcionário, Data de Admissão, Sigla do Setor, Nome do Setor, Data de Alocação do Funcionário &lt;br&gt;no Setor;&lt;div&gt;&lt;br&gt;&lt;/div&gt;" style="text;html=1;align=center;verticalAlign=middle;resizable=0;points=[];autosize=1;strokeColor=none;fillColor=none;fontSize=16;" vertex="1" parent="1">
          <mxGeometry x="40" y="2780" width="810" height="70" as="geometry" />
        </mxCell>
        <mxCell id="NAbaKmCp2qKY5bfBWia4-138" value="" style="edgeStyle=none;curved=1;rounded=0;orthogonalLoop=1;jettySize=auto;html=1;fontSize=12;startSize=8;endSize=8;endArrow=none;endFill=0;" edge="1" parent="1" source="NAbaKmCp2qKY5bfBWia4-139" target="NAbaKmCp2qKY5bfBWia4-141">
          <mxGeometry relative="1" as="geometry" />
        </mxCell>
        <mxCell id="NAbaKmCp2qKY5bfBWia4-139" value="funcionario" style="rounded=0;whiteSpace=wrap;html=1;" vertex="1" parent="1">
          <mxGeometry x="174.86" y="2927.5555555555557" width="102.85714285714285" height="45.33333333333333" as="geometry" />
        </mxCell>
        <mxCell id="NAbaKmCp2qKY5bfBWia4-140" value="" style="edgeStyle=none;curved=1;rounded=0;orthogonalLoop=1;jettySize=auto;html=1;fontSize=12;startSize=8;endSize=8;endArrow=none;endFill=0;" edge="1" parent="1" source="NAbaKmCp2qKY5bfBWia4-141" target="NAbaKmCp2qKY5bfBWia4-142">
          <mxGeometry relative="1" as="geometry" />
        </mxCell>
        <mxCell id="NAbaKmCp2qKY5bfBWia4-141" value="alocado" style="rhombus;whiteSpace=wrap;html=1;rounded=0;" vertex="1" parent="1">
          <mxGeometry x="397.71714285714285" y="2920" width="68.57142857142857" height="60.44444444444444" as="geometry" />
        </mxCell>
        <mxCell id="NAbaKmCp2qKY5bfBWia4-142" value="setor" style="whiteSpace=wrap;html=1;rounded=0;" vertex="1" parent="1">
          <mxGeometry x="552.0028571428571" y="2927.5555555555557" width="102.85714285714285" height="45.33333333333333" as="geometry" />
        </mxCell>
        <mxCell id="NAbaKmCp2qKY5bfBWia4-143" value="1,n" style="text;html=1;align=center;verticalAlign=middle;resizable=0;points=[];autosize=1;strokeColor=none;fillColor=none;fontSize=16;" vertex="1" parent="1">
          <mxGeometry x="319.7171428571429" y="2928.311111111111" width="50" height="30" as="geometry" />
        </mxCell>
        <mxCell id="NAbaKmCp2qKY5bfBWia4-144" value="1,1" style="text;html=1;align=center;verticalAlign=middle;resizable=0;points=[];autosize=1;strokeColor=none;fillColor=none;fontSize=16;" vertex="1" parent="1">
          <mxGeometry x="483.43142857142857" y="2927.5555555555557" width="50" height="30" as="geometry" />
        </mxCell>
        <mxCell id="NAbaKmCp2qKY5bfBWia4-147" style="edgeStyle=orthogonalEdgeStyle;rounded=0;orthogonalLoop=1;jettySize=auto;html=1;fontSize=12;startSize=8;endSize=8;endArrow=oval;endFill=1;" edge="1" parent="1">
          <mxGeometry relative="1" as="geometry">
            <mxPoint x="214" y="2869.56" as="targetPoint" />
            <mxPoint x="190" y="2927.56" as="sourcePoint" />
            <Array as="points">
              <mxPoint x="190" y="2869.56" />
            </Array>
          </mxGeometry>
        </mxCell>
        <mxCell id="NAbaKmCp2qKY5bfBWia4-148" style="edgeStyle=orthogonalEdgeStyle;rounded=0;orthogonalLoop=1;jettySize=auto;html=1;exitX=0.25;exitY=0;exitDx=0;exitDy=0;fontSize=12;startSize=8;endSize=8;endArrow=oval;endFill=0;entryX=0.002;entryY=0.633;entryDx=0;entryDy=0;entryPerimeter=0;" edge="1" parent="1" target="NAbaKmCp2qKY5bfBWia4-153">
          <mxGeometry relative="1" as="geometry">
            <mxPoint x="230.62" y="2889.56" as="targetPoint" />
            <mxPoint x="210.05" y="2927.56" as="sourcePoint" />
            <Array as="points">
              <mxPoint x="210" y="2890" />
            </Array>
          </mxGeometry>
        </mxCell>
        <mxCell id="NAbaKmCp2qKY5bfBWia4-149" style="edgeStyle=orthogonalEdgeStyle;rounded=0;orthogonalLoop=1;jettySize=auto;html=1;exitX=0.25;exitY=0;exitDx=0;exitDy=0;fontSize=12;startSize=8;endSize=8;endArrow=oval;endFill=1;" edge="1" parent="1">
          <mxGeometry relative="1" as="geometry">
            <mxPoint x="580.43" y="2870.31" as="targetPoint" />
            <mxPoint x="556.43" y="2928.31" as="sourcePoint" />
            <Array as="points">
              <mxPoint x="556.43" y="2870.31" />
            </Array>
          </mxGeometry>
        </mxCell>
        <mxCell id="NAbaKmCp2qKY5bfBWia4-150" style="edgeStyle=orthogonalEdgeStyle;rounded=0;orthogonalLoop=1;jettySize=auto;html=1;exitX=0.25;exitY=0;exitDx=0;exitDy=0;fontSize=12;startSize=8;endSize=8;endArrow=oval;endFill=0;" edge="1" parent="1">
          <mxGeometry relative="1" as="geometry">
            <mxPoint x="610" y="2890" as="targetPoint" />
            <mxPoint x="580" y="2927.56" as="sourcePoint" />
            <Array as="points">
              <mxPoint x="580" y="2890" />
              <mxPoint x="604" y="2890" />
            </Array>
          </mxGeometry>
        </mxCell>
        <mxCell id="NAbaKmCp2qKY5bfBWia4-151" style="edgeStyle=orthogonalEdgeStyle;rounded=0;orthogonalLoop=1;jettySize=auto;html=1;exitX=0.626;exitY=0.026;exitDx=0;exitDy=0;fontSize=12;startSize=8;endSize=8;endArrow=oval;endFill=0;exitPerimeter=0;" edge="1" parent="1">
          <mxGeometry relative="1" as="geometry">
            <mxPoint x="253.26000000000002" y="2909.6" as="targetPoint" />
            <mxPoint x="229.6485714285714" y="2928.314222222222" as="sourcePoint" />
            <Array as="points">
              <mxPoint x="229.4" y="2909.58" />
            </Array>
          </mxGeometry>
        </mxCell>
        <mxCell id="NAbaKmCp2qKY5bfBWia4-152" value="nome" style="text;html=1;align=center;verticalAlign=middle;resizable=0;points=[];autosize=1;strokeColor=none;fillColor=none;fontSize=16;" vertex="1" parent="1">
          <mxGeometry x="217.72" y="2850" width="60" height="30" as="geometry" />
        </mxCell>
        <mxCell id="NAbaKmCp2qKY5bfBWia4-153" value="data admissão" style="text;html=1;align=center;verticalAlign=middle;resizable=0;points=[];autosize=1;strokeColor=none;fillColor=none;fontSize=16;" vertex="1" parent="1">
          <mxGeometry x="239.72000000000003" y="2871" width="130" height="30" as="geometry" />
        </mxCell>
        <mxCell id="NAbaKmCp2qKY5bfBWia4-154" value="sigla setor" style="text;html=1;align=center;verticalAlign=middle;resizable=0;points=[];autosize=1;strokeColor=none;fillColor=none;fontSize=16;" vertex="1" parent="1">
          <mxGeometry x="254.86" y="2890" width="100" height="30" as="geometry" />
        </mxCell>
        <mxCell id="NAbaKmCp2qKY5bfBWia4-155" value="nome setor" style="text;html=1;align=center;verticalAlign=middle;resizable=0;points=[];autosize=1;strokeColor=none;fillColor=none;fontSize=16;" vertex="1" parent="1">
          <mxGeometry x="580" y="2850" width="100" height="30" as="geometry" />
        </mxCell>
        <mxCell id="NAbaKmCp2qKY5bfBWia4-156" value="data alocação" style="text;html=1;align=center;verticalAlign=middle;resizable=0;points=[];autosize=1;strokeColor=none;fillColor=none;fontSize=16;" vertex="1" parent="1">
          <mxGeometry x="619.86" y="2871" width="120" height="30" as="geometry" />
        </mxCell>
        <mxCell id="NAbaKmCp2qKY5bfBWia4-159" value="4-c)Ano de Nascimento do Animal, Código de Identificação do Animal, Situação da Jaula, Número da Jaula" style="text;html=1;align=center;verticalAlign=middle;resizable=0;points=[];autosize=1;strokeColor=none;fillColor=none;fontSize=16;" vertex="1" parent="1">
          <mxGeometry x="70" y="3010" width="780" height="30" as="geometry" />
        </mxCell>
        <mxCell id="NAbaKmCp2qKY5bfBWia4-176" value="" style="group" vertex="1" connectable="0" parent="1">
          <mxGeometry x="173.43" y="3060" width="600" height="150" as="geometry" />
        </mxCell>
        <mxCell id="NAbaKmCp2qKY5bfBWia4-160" value="" style="group" vertex="1" connectable="0" parent="NAbaKmCp2qKY5bfBWia4-176">
          <mxGeometry y="70" width="560" height="80" as="geometry" />
        </mxCell>
        <mxCell id="NAbaKmCp2qKY5bfBWia4-161" value="" style="edgeStyle=none;curved=1;rounded=0;orthogonalLoop=1;jettySize=auto;html=1;fontSize=12;startSize=8;endSize=8;endArrow=none;endFill=0;" edge="1" parent="NAbaKmCp2qKY5bfBWia4-160" source="NAbaKmCp2qKY5bfBWia4-162" target="NAbaKmCp2qKY5bfBWia4-164">
          <mxGeometry relative="1" as="geometry" />
        </mxCell>
        <mxCell id="NAbaKmCp2qKY5bfBWia4-168" style="edgeStyle=orthogonalEdgeStyle;rounded=0;orthogonalLoop=1;jettySize=auto;html=1;exitX=0.25;exitY=0;exitDx=0;exitDy=0;fontSize=12;startSize=8;endSize=8;endArrow=oval;endFill=1;" edge="1" parent="NAbaKmCp2qKY5bfBWia4-160" source="NAbaKmCp2qKY5bfBWia4-162">
          <mxGeometry relative="1" as="geometry">
            <mxPoint x="60" y="-50" as="targetPoint" />
            <Array as="points">
              <mxPoint x="30" y="-50" />
            </Array>
          </mxGeometry>
        </mxCell>
        <mxCell id="NAbaKmCp2qKY5bfBWia4-162" value="animais" style="rounded=0;whiteSpace=wrap;html=1;" vertex="1" parent="NAbaKmCp2qKY5bfBWia4-160">
          <mxGeometry y="10" width="120" height="60" as="geometry" />
        </mxCell>
        <mxCell id="NAbaKmCp2qKY5bfBWia4-163" value="" style="edgeStyle=none;curved=1;rounded=0;orthogonalLoop=1;jettySize=auto;html=1;fontSize=12;startSize=8;endSize=8;endArrow=none;endFill=0;" edge="1" parent="NAbaKmCp2qKY5bfBWia4-160" source="NAbaKmCp2qKY5bfBWia4-164" target="NAbaKmCp2qKY5bfBWia4-165">
          <mxGeometry relative="1" as="geometry" />
        </mxCell>
        <mxCell id="NAbaKmCp2qKY5bfBWia4-164" value="ocupa" style="rhombus;whiteSpace=wrap;html=1;rounded=0;" vertex="1" parent="NAbaKmCp2qKY5bfBWia4-160">
          <mxGeometry x="260" width="80" height="80" as="geometry" />
        </mxCell>
        <mxCell id="NAbaKmCp2qKY5bfBWia4-165" value="jaula" style="whiteSpace=wrap;html=1;rounded=0;" vertex="1" parent="NAbaKmCp2qKY5bfBWia4-160">
          <mxGeometry x="440" y="10" width="120" height="60" as="geometry" />
        </mxCell>
        <mxCell id="NAbaKmCp2qKY5bfBWia4-166" value="1,n" style="text;html=1;align=center;verticalAlign=middle;resizable=0;points=[];autosize=1;strokeColor=none;fillColor=none;fontSize=16;" vertex="1" parent="NAbaKmCp2qKY5bfBWia4-160">
          <mxGeometry x="159" y="11" width="50" height="30" as="geometry" />
        </mxCell>
        <mxCell id="NAbaKmCp2qKY5bfBWia4-167" value="0,1" style="text;html=1;align=center;verticalAlign=middle;resizable=0;points=[];autosize=1;strokeColor=none;fillColor=none;fontSize=16;" vertex="1" parent="NAbaKmCp2qKY5bfBWia4-160">
          <mxGeometry x="359" y="10" width="50" height="30" as="geometry" />
        </mxCell>
        <mxCell id="NAbaKmCp2qKY5bfBWia4-169" value="id animal" style="text;html=1;align=center;verticalAlign=middle;resizable=0;points=[];autosize=1;strokeColor=none;fillColor=none;fontSize=16;" vertex="1" parent="NAbaKmCp2qKY5bfBWia4-176">
          <mxGeometry x="62.860000000000014" width="90" height="30" as="geometry" />
        </mxCell>
        <mxCell id="NAbaKmCp2qKY5bfBWia4-170" style="edgeStyle=orthogonalEdgeStyle;rounded=0;orthogonalLoop=1;jettySize=auto;html=1;exitX=0.25;exitY=0;exitDx=0;exitDy=0;fontSize=12;startSize=8;endSize=8;endArrow=oval;endFill=0;" edge="1" parent="NAbaKmCp2qKY5bfBWia4-176">
          <mxGeometry relative="1" as="geometry">
            <mxPoint x="70" y="40" as="targetPoint" />
            <mxPoint x="50" y="80" as="sourcePoint" />
            <Array as="points">
              <mxPoint x="50" y="40" />
            </Array>
          </mxGeometry>
        </mxCell>
        <mxCell id="NAbaKmCp2qKY5bfBWia4-171" value="ano nascimento" style="text;html=1;align=center;verticalAlign=middle;resizable=0;points=[];autosize=1;strokeColor=none;fillColor=none;fontSize=16;" vertex="1" parent="NAbaKmCp2qKY5bfBWia4-176">
          <mxGeometry x="70" y="21" width="140" height="30" as="geometry" />
        </mxCell>
        <mxCell id="NAbaKmCp2qKY5bfBWia4-172" style="edgeStyle=orthogonalEdgeStyle;rounded=0;orthogonalLoop=1;jettySize=auto;html=1;exitX=0.25;exitY=0;exitDx=0;exitDy=0;fontSize=12;startSize=8;endSize=8;endArrow=oval;endFill=1;" edge="1" parent="NAbaKmCp2qKY5bfBWia4-176">
          <mxGeometry relative="1" as="geometry">
            <mxPoint x="489.86" y="21" as="targetPoint" />
            <mxPoint x="459.86" y="81" as="sourcePoint" />
            <Array as="points">
              <mxPoint x="459.86" y="21" />
            </Array>
          </mxGeometry>
        </mxCell>
        <mxCell id="NAbaKmCp2qKY5bfBWia4-173" value="nr jaula" style="text;html=1;align=center;verticalAlign=middle;resizable=0;points=[];autosize=1;strokeColor=none;fillColor=none;fontSize=16;" vertex="1" parent="NAbaKmCp2qKY5bfBWia4-176">
          <mxGeometry x="490" width="80" height="30" as="geometry" />
        </mxCell>
        <mxCell id="NAbaKmCp2qKY5bfBWia4-174" style="edgeStyle=orthogonalEdgeStyle;rounded=0;orthogonalLoop=1;jettySize=auto;html=1;fontSize=12;startSize=8;endSize=8;endArrow=oval;endFill=0;" edge="1" parent="NAbaKmCp2qKY5bfBWia4-176">
          <mxGeometry relative="1" as="geometry">
            <mxPoint x="509.86" y="40" as="targetPoint" />
            <mxPoint x="480" y="80" as="sourcePoint" />
            <Array as="points">
              <mxPoint x="479.86" y="40" />
            </Array>
          </mxGeometry>
        </mxCell>
        <mxCell id="NAbaKmCp2qKY5bfBWia4-175" value="situação&amp;nbsp;" style="text;html=1;align=center;verticalAlign=middle;resizable=0;points=[];autosize=1;strokeColor=none;fillColor=none;fontSize=16;" vertex="1" parent="NAbaKmCp2qKY5bfBWia4-176">
          <mxGeometry x="510" y="21" width="90" height="30" as="geometry" />
        </mxCell>
        <mxCell id="NAbaKmCp2qKY5bfBWia4-178" value="5-a)&lt;div&gt;- no mínimo nenhum paciente ocupa um quarto, no máximo um paciente ocupa um quarto&lt;/div&gt;&lt;div&gt;- no minimo nenhum quarto é ocupa, no máximo um quarto é ocupado&lt;/div&gt;&lt;div&gt;&lt;br&gt;&lt;/div&gt;&lt;div&gt;5-b)&lt;/div&gt;&lt;div&gt;- no mínino nenhum paciente tem cobertura de palno de saude,&amp;nbsp;&lt;span style=&quot;background-color: initial;&quot;&gt;máximo varios paciente tem&amp;nbsp;&lt;/span&gt;&lt;/div&gt;&lt;div&gt;&lt;span style=&quot;background-color: initial;&quot;&gt;cobertura dfo plano de saude&lt;/span&gt;&lt;/div&gt;&lt;div&gt;&lt;span style=&quot;background-color: initial;&quot;&gt;&lt;br&gt;&lt;/span&gt;&lt;/div&gt;&lt;div&gt;&lt;br&gt;&lt;/div&gt;&lt;div&gt;&lt;span style=&quot;background-color: initial;&quot;&gt;&lt;br&gt;&lt;/span&gt;&lt;/div&gt;" style="text;html=1;align=left;verticalAlign=middle;resizable=0;points=[];autosize=1;strokeColor=none;fillColor=none;fontSize=16;" vertex="1" parent="1">
          <mxGeometry x="100" y="3340" width="680" height="210" as="geometry" />
        </mxCell>
      </root>
    </mxGraphModel>
  </diagram>
</mxfile>
